<svg id="Layer_1" data-name="Layer 1" xmlns="http://www.w3.org/2000/svg" viewBox="0 0 26 18"><defs><style>.cls-1{fill:#314455;}</style></defs><g id="mail_email_e-mail_letter" data-name="mail email e-mail letter"><path class="cls-1" d="M28,13a1,1,0,0,0-1,1v8a1,1,0,0,1-1,1H6a1,1,0,0,1-1-1V14a1,1,0,0,0-2,0v8a3,3,0,0,0,3,3H26a3,3,0,0,0,3-3V14A1,1,0,0,0,28,13Z" transform="translate(-3 -7)"/><path class="cls-1" d="M15.4,18.8a1,1,0,0,0,1.2,0L28.41,9.94a1,1,0,0,0,.3-1.23,3.06,3.06,0,0,0-.59-.83A3,3,0,0,0,26,7H6a3,3,0,0,0-2.12.88,3.06,3.06,0,0,0-.59.83,1,1,0,0,0,.3,1.23ZM6,9H26.28L16,16.75,5.72,9Z" transform="translate(-3 -7)"/></g></svg>