<svg id="Layer_1" data-name="Layer 1" xmlns="http://www.w3.org/2000/svg" viewBox="0 0 49.26 48.04"><defs><style>.cls-1,.cls-2{fill:#314455;}.cls-1{fill-rule:evenodd;}</style></defs><path class="cls-1" d="M28.34,5.22a24.63,24.63,0,0,0-7.79,48c1.23.23,1.69-.53,1.69-1.18s0-2.53,0-4.59c-6.85,1.49-8.29-2.91-8.29-2.91-1.13-2.84-2.74-3.6-2.74-3.6-2.23-1.53.17-1.5.17-1.5A5.19,5.19,0,0,1,15.11,42c2.2,3.77,5.77,2.68,7.17,2.05a5.25,5.25,0,0,1,1.57-3.3C18.38,40.11,12.62,38,12.62,28.56A9.56,9.56,0,0,1,15.16,22a8.87,8.87,0,0,1,.24-6.52s2.07-.66,6.78,2.53a23.31,23.31,0,0,1,12.33,0c4.7-3.19,6.77-2.53,6.77-2.53A8.87,8.87,0,0,1,41.52,22a9.51,9.51,0,0,1,2.53,6.61c0,9.46-5.76,11.55-11.24,12.16a5.89,5.89,0,0,1,1.67,4.56c0,3.29,0,5.94,0,6.76,0,.65.44,1.42,1.69,1.18a24.63,24.63,0,0,0-7.8-48Z" transform="translate(-3.71 -5.22)"/><path class="cls-2" d="M13,40.58a.32.32,0,0,1-.42.08c-.18-.08-.28-.25-.22-.37s.24-.16.42-.08.28.25.22.37Z" transform="translate(-3.71 -5.22)"/><path class="cls-2" d="M14,41.7a.4.4,0,0,1-.51-.12.37.37,0,0,1-.07-.51c.12-.11.35-.06.51.11s.19.4.07.52Z" transform="translate(-3.71 -5.22)"/><path class="cls-2" d="M15,43.11c-.15.11-.4,0-.55-.21a.44.44,0,0,1,0-.59c.15-.1.4,0,.55.21s.15.49,0,.59Z" transform="translate(-3.71 -5.22)"/><path class="cls-2" d="M16.34,44.48c-.14.15-.42.11-.63-.09a.48.48,0,0,1-.15-.63.47.47,0,0,1,.64.09c.22.2.28.49.14.63Z" transform="translate(-3.71 -5.22)"/><path class="cls-2" d="M18.17,45.28c-.06.19-.33.28-.61.2s-.46-.31-.41-.51.34-.28.62-.19.46.3.4.5Z" transform="translate(-3.71 -5.22)"/><path class="cls-2" d="M20.19,45.43c0,.2-.23.37-.52.37s-.54-.16-.54-.36.23-.37.53-.37.53.16.53.36Z" transform="translate(-3.71 -5.22)"/><path class="cls-2" d="M22.06,45.11c0,.2-.16.4-.45.45A.48.48,0,0,1,21,45.3c0-.21.17-.41.46-.46s.55.07.58.27Z" transform="translate(-3.71 -5.22)"/></svg>